HIERARCHY
ROOT Hips
{
	OFFSET 0.000000 83.214638 0.000000
	CHANNELS 6 Xposition Yposition Zposition Xrotation Yrotation Zrotation
	JOINT Pelvis
	{
		OFFSET 0.000000 0.000000 0.000000
		CHANNELS 3 Xrotation Yrotation Zrotation
		JOINT LeftUpLeg
		{
			OFFSET 8.479700 -4.795502 -0.379100
			CHANNELS 3 Xrotation Yrotation Zrotation
			JOINT LeftLeg
			{
				OFFSET 0.024144 -32.555107 0.112900
				CHANNELS 3 Xrotation Yrotation Zrotation
				JOINT LeftFoot
				{
					OFFSET -0.024144 -32.638630 -3.012600
					CHANNELS 3 Xrotation Yrotation Zrotation
					JOINT LeftToeBase
					{
						OFFSET 0.970200 -13.225400 11.864200
						CHANNELS 3 Xrotation Yrotation Zrotation
						End Site
						{
							OFFSET 0.000000 12.319262 0.000000
						}
					}
					JOINT LFootTongue
					{
						OFFSET 1.142400 -1.059800 6.665200
						CHANNELS 3 Xrotation Yrotation Zrotation
						End Site
						{
							OFFSET 0.000000 12.319262 0.000000
						}
					}
				}
				JOINT LeftPantLeg
				{
					OFFSET 0.918482 -16.533964 -2.284700
					CHANNELS 3 Xrotation Yrotation Zrotation
					End Site
					{
						OFFSET 0.350399 24.744368 0.000000
					}
				}
			}
		}
		JOINT RightUpLeg
		{
			OFFSET -8.479700 -4.795502 -0.379100
			CHANNELS 3 Xrotation Yrotation Zrotation
			JOINT RightLeg
			{
				OFFSET -0.023144 -32.555092 0.112900
				CHANNELS 3 Xrotation Yrotation Zrotation
				JOINT RightFoot
				{
					OFFSET 0.023144 -32.638641 -3.012700
					CHANNELS 3 Xrotation Yrotation Zrotation
					JOINT RightToeBase
					{
						OFFSET -0.970200 -13.225400 11.864200
						CHANNELS 3 Xrotation Yrotation Zrotation
						End Site
						{
							OFFSET 0.000000 12.319244 0.000000
						}
					}
					JOINT RFootTongue
					{
						OFFSET -1.142200 -1.059800 6.665200
						CHANNELS 3 Xrotation Yrotation Zrotation
						End Site
						{
							OFFSET 0.000000 12.319243 0.000000
						}
					}
				}
				JOINT RightPantLeg
				{
					OFFSET -0.919482 -16.533978 -2.284800
					CHANNELS 3 Xrotation Yrotation Zrotation
					End Site
					{
						OFFSET -0.350400 24.744419 0.000000
					}
				}
			}
		}
	}
	JOINT Spine
	{
		OFFSET 0.000000 7.722000 1.166200
		CHANNELS 3 Xrotation Yrotation Zrotation
		JOINT Spine1
		{
			OFFSET 0.000000 12.024101 0.248800
			CHANNELS 3 Xrotation Yrotation Zrotation
			JOINT Spine2
			{
				OFFSET 0.000000 11.502998 -0.491200
				CHANNELS 3 Xrotation Yrotation Zrotation
				JOINT Neck
				{
					OFFSET 0.000000 18.430702 -3.123100
					CHANNELS 3 Xrotation Yrotation Zrotation
					JOINT Head
					{
						OFFSET 0.000000 9.051102 1.034000
						CHANNELS 3 Xrotation Yrotation Zrotation
						JOINT HairB
						{
							OFFSET 0.208400 24.786102 24.822300
							CHANNELS 3 Xrotation Yrotation Zrotation
							End Site
							{
								OFFSET 0.000000 32.263779 0.000000
							}
						}
						JOINT HairA
						{
							OFFSET -7.081100 24.428299 23.196600
							CHANNELS 3 Xrotation Yrotation Zrotation
							End Site
							{
								OFFSET 0.000000 32.263779 0.000000
							}
						}
						JOINT Hat
						{
							OFFSET 16.728800 15.048294 -15.439601
							CHANNELS 3 Xrotation Yrotation Zrotation
							End Site
							{
								OFFSET 0.000000 32.263779 0.000000
							}
						}
					}
				}
				JOINT LeftShoulder
				{
					OFFSET 6.197800 13.665199 -4.064700
					CHANNELS 3 Xrotation Yrotation Zrotation
					JOINT LeftArm
					{
						OFFSET 7.778100 -0.187103 -1.709300
						CHANNELS 3 Xrotation Yrotation Zrotation
						JOINT LeftForeArm
						{
							OFFSET 22.049376 0.000000 0.000000
							CHANNELS 3 Xrotation Yrotation Zrotation
							JOINT LeftHand
							{
								OFFSET 23.009392 0.000000 0.000000
								CHANNELS 3 Xrotation Yrotation Zrotation
								JOINT LeftHandThumb1
								{
									OFFSET 3.507191 -2.063065 3.133727
									CHANNELS 3 Xrotation Yrotation Zrotation
									JOINT LeftHandThumb2
									{
										OFFSET 3.101337 -1.790558 1.790558
										CHANNELS 3 Xrotation Yrotation Zrotation
										JOINT LeftHandThumb3
										{
											OFFSET 3.058640 -1.765907 1.765906
											CHANNELS 3 Xrotation Yrotation Zrotation
											End Site
											{
												OFFSET -0.415260 3.926476 -0.049563
											}
										}
									}
								}
								JOINT LeftHandIndex1
								{
									OFFSET 11.334419 -0.901459 3.706815
									CHANNELS 3 Xrotation Yrotation Zrotation
									JOINT LeftHandIndex2
									{
										OFFSET 3.283112 0.000000 0.000000
										CHANNELS 3 Xrotation Yrotation Zrotation
										JOINT LeftHandIndex3
										{
											OFFSET 3.323853 0.000000 0.000000
											CHANNELS 3 Xrotation Yrotation Zrotation
											End Site
											{
												OFFSET -1.135597 3.097809 0.402452
											}
										}
									}
								}
								JOINT LeftHandMiddle1
								{
									OFFSET 11.335861 0.000000 0.000000
									CHANNELS 3 Xrotation Yrotation Zrotation
									JOINT LeftHandMiddle2
									{
										OFFSET 3.410492 0.000000 0.000000
										CHANNELS 3 Xrotation Yrotation Zrotation
										JOINT LeftHandMiddle3
										{
											OFFSET 3.312172 0.000000 0.000000
											CHANNELS 3 Xrotation Yrotation Zrotation
											End Site
											{
												OFFSET -1.150200 3.080154 0.400270
											}
										}
									}
								}
								JOINT LeftHandRing1
								{
									OFFSET 11.514786 -0.013176 -3.003090
									CHANNELS 3 Xrotation Yrotation Zrotation
									JOINT LeftHandRing2
									{
										OFFSET 3.053307 0.000000 0.000000
										CHANNELS 3 Xrotation Yrotation Zrotation
										JOINT LeftHandRing3
										{
											OFFSET 3.295807 0.000000 0.000000
											CHANNELS 3 Xrotation Yrotation Zrotation
											End Site
											{
												OFFSET -1.281006 3.013344 0.375733
											}
										}
									}
								}
								JOINT LeftHandPinky1
								{
									OFFSET 10.518692 -0.960396 -5.730441
									CHANNELS 3 Xrotation Yrotation Zrotation
									JOINT LeftHandPinky2
									{
										OFFSET 2.861649 0.000000 0.000000
										CHANNELS 3 Xrotation Yrotation Zrotation
										JOINT LeftHandPinky3
										{
											OFFSET 2.863380 0.000000 0.000000
											CHANNELS 3 Xrotation Yrotation Zrotation
											End Site
											{
												OFFSET -0.843597 2.711159 0.369971
											}
										}
									}
								}
							}
							JOINT LSleeve
							{
								OFFSET 6.676277 -0.344902 -1.011730
								CHANNELS 3 Xrotation Yrotation Zrotation
								End Site
								{
									OFFSET 0.000000 14.885353 0.000000
								}
							}
						}
					}
				}
				JOINT RightShoulder
				{
					OFFSET -6.197800 13.665199 -4.064700
					CHANNELS 3 Xrotation Yrotation Zrotation
					JOINT RightArm
					{
						OFFSET -7.778100 -0.187103 -1.709300
						CHANNELS 3 Xrotation Yrotation Zrotation
						JOINT RightForeArm
						{
							OFFSET -22.049376 0.000000 0.000000
							CHANNELS 3 Xrotation Yrotation Zrotation
							JOINT RightHand
							{
								OFFSET -23.009392 0.000000 0.000000
								CHANNELS 3 Xrotation Yrotation Zrotation
								JOINT RightHandThumb1
								{
									OFFSET -3.507191 -2.063065 3.133727
									CHANNELS 3 Xrotation Yrotation Zrotation
									JOINT RightHandThumb2
									{
										OFFSET -3.101337 -1.790558 1.790558
										CHANNELS 3 Xrotation Yrotation Zrotation
										JOINT RightHandThumb3
										{
											OFFSET -3.058640 -1.765907 1.765906
											CHANNELS 3 Xrotation Yrotation Zrotation
											End Site
											{
												OFFSET 0.415260 3.926476 -0.049563
											}
										}
									}
								}
								JOINT RightHandIndex1
								{
									OFFSET -11.334419 -0.901459 3.706815
									CHANNELS 3 Xrotation Yrotation Zrotation
									JOINT RightHandIndex2
									{
										OFFSET -3.283112 0.000000 0.000000
										CHANNELS 3 Xrotation Yrotation Zrotation
										JOINT RightHandIndex3
										{
											OFFSET -3.323853 0.000000 0.000000
											CHANNELS 3 Xrotation Yrotation Zrotation
											End Site
											{
												OFFSET 1.135597 3.097809 0.402452
											}
										}
									}
								}
								JOINT RightHandMiddle1
								{
									OFFSET -11.335861 0.000000 0.000000
									CHANNELS 3 Xrotation Yrotation Zrotation
									JOINT RightHandMiddle2
									{
										OFFSET -3.410492 0.000000 0.000000
										CHANNELS 3 Xrotation Yrotation Zrotation
										JOINT RightHandMiddle3
										{
											OFFSET -3.312172 0.000000 0.000000
											CHANNELS 3 Xrotation Yrotation Zrotation
											End Site
											{
												OFFSET 1.150200 3.080154 0.400270
											}
										}
									}
								}
								JOINT RightHandRing1
								{
									OFFSET -11.514786 -0.013176 -3.003090
									CHANNELS 3 Xrotation Yrotation Zrotation
									JOINT RightHandRing2
									{
										OFFSET -3.053307 0.000000 0.000000
										CHANNELS 3 Xrotation Yrotation Zrotation
										JOINT RightHandRing3
										{
											OFFSET -3.295807 0.000000 0.000000
											CHANNELS 3 Xrotation Yrotation Zrotation
											End Site
											{
												OFFSET 1.281006 3.013344 0.375733
											}
										}
									}
								}
								JOINT RightHandPinky1
								{
									OFFSET -10.518692 -0.960396 -5.730441
									CHANNELS 3 Xrotation Yrotation Zrotation
									JOINT RightHandPinky2
									{
										OFFSET -2.861649 0.000000 0.000000
										CHANNELS 3 Xrotation Yrotation Zrotation
										JOINT RightHandPinky3
										{
											OFFSET -2.863380 0.000000 0.000000
											CHANNELS 3 Xrotation Yrotation Zrotation
											End Site
											{
												OFFSET 0.843597 2.711159 0.369971
											}
										}
									}
								}
							}
							JOINT RSleeve
							{
								OFFSET -6.676277 -0.344902 -1.011730
								CHANNELS 3 Xrotation Yrotation Zrotation
								End Site
								{
									OFFSET 0.000000 14.885353 0.000000
								}
							}
						}
					}
				}
				JOINT Backpack
				{
					OFFSET 0.000000 -2.471497 36.677502
					CHANNELS 3 Xrotation Yrotation Zrotation
					End Site
					{
						OFFSET 0.000000 20.427315 0.000000
					}
				}
				JOINT Hood
				{
					OFFSET 0.000000 18.754097 -10.431000
					CHANNELS 3 Xrotation Yrotation Zrotation
					JOINT Hood1
					{
						OFFSET 0.000000 -5.011002 -7.685901
						CHANNELS 3 Xrotation Yrotation Zrotation
						End Site
						{
							OFFSET 0.000000 9.175140 0.000000
						}
					}
				}
				JOINT LHoodieString
				{
					OFFSET 5.250500 16.397697 3.089900
					CHANNELS 3 Xrotation Yrotation Zrotation
					JOINT LHoodieString1
					{
						OFFSET 0.257700 -6.364304 3.694600
						CHANNELS 3 Xrotation Yrotation Zrotation
						JOINT LHoodieString2
						{
							OFFSET 0.000000 -9.643799 2.679100
							CHANNELS 3 Xrotation Yrotation Zrotation
							End Site
							{
								OFFSET 0.000000 10.009018 0.000000
							}
						}
					}
				}
				JOINT RHoodieString
				{
					OFFSET -5.250500 16.397697 3.089900
					CHANNELS 3 Xrotation Yrotation Zrotation
					JOINT RHoodieString1
					{
						OFFSET -0.257700 -6.364304 3.694600
						CHANNELS 3 Xrotation Yrotation Zrotation
						JOINT RHoodieString2
						{
							OFFSET 0.000000 -9.643799 2.679100
							CHANNELS 3 Xrotation Yrotation Zrotation
							End Site
							{
								OFFSET 0.000000 10.009018 0.000000
							}
						}
					}
				}
			}
			JOINT LBackpack_Strap
			{
				OFFSET 15.223200 -7.719803 -6.610900
				CHANNELS 3 Xrotation Yrotation Zrotation
				End Site
				{
					OFFSET 0.000000 16.040596 0.000000
				}
			}
			JOINT RBackpack_Strap
			{
				OFFSET -15.223000 -7.719803 -6.610900
				CHANNELS 3 Xrotation Yrotation Zrotation
				End Site
				{
					OFFSET 0.000000 16.040596 0.000000
				}
			}
		}
	}
	JOINT BoyFacialAnim_Joint
	{
		OFFSET 1.000000 -82.208099 -1.550900
		CHANNELS 3 Xrotation Yrotation Zrotation
		End Site
		{
			OFFSET 0.000000 30.012791 0.000000
		}
	}
}
MOTION
Frames: 4
Frame Time: 0.033333
7.665340 63.801399 27.883064 20.934702 24.705855 -18.177992 -0.000000 -0.000000 0.000001 -74.558140 7.110778 8.578778 89.970954 21.756883 -1.969176 -28.285022 -1.410158 -2.199431 -0.000000 -0.000001 0.000000 -0.000000 -0.000001 0.000001 0.000001 0.000002 -0.000001 -80.005161 -0.059200 7.627851 64.972311 -4.394834 -8.401207 -4.369162 -1.101652 13.517427 -0.000000 0.000002 -0.000000 -0.000000 0.000002 -0.000000 0.000000 -0.000001 -0.000001 4.828009 -3.898530 1.331263 9.718534 -8.142854 2.355089 9.718524 -8.142853 2.355084 -2.128776 -1.266835 -1.806772 -4.905671 -11.150798 5.386726 -0.000001 0.000000 0.000001 -0.000001 0.000000 0.000001 -0.000001 0.000000 0.000001 3.622006 -22.882028 -14.199273 -82.167736 -36.139969 -69.381157 84.461709 -25.157595 66.149440 7.138734 4.919750 16.027522 -18.577896 -6.213908 -0.276339 -15.043693 10.188726 -5.883408 -0.000001 -0.000004 0.000002 -9.615494 -11.765695 -24.153251 -1.473108 0.739746 -24.198954 -0.000001 0.000002 -0.000001 -0.233324 -0.164264 -17.215488 -3.522840 -1.369742 -16.951565 0.000002 0.000000 -0.000001 2.259903 14.083900 -11.550699 0.526943 -4.034684 -37.858653 0.000001 -0.000002 0.000001 1.272702 26.128279 -13.780761 1.008111 -6.855693 -30.160251 -0.000000 0.000001 -0.000000 0.000000 0.000003 0.000001 -1.222548 14.003919 9.578125 -57.348584 22.571774 45.638545 70.463578 35.549461 -66.601919 1.222292 -1.994226 -12.567185 -16.928936 0.033389 0.116417 16.456593 3.838174 9.665898 -0.000000 0.000001 0.000001 -0.309750 4.221528 -10.820083 -2.807607 0.691971 45.511760 -0.000001 -0.000000 0.000002 -6.002823 -6.563980 4.197160 -1.745412 1.478394 31.152868 0.000002 -0.000000 0.000001 0.137325 -10.021310 16.163472 -0.120393 2.877727 23.699713 -0.000001 -0.000001 0.000000 0.906813 -12.204626 38.516704 -0.754873 7.034472 24.486768 -0.000000 -0.000001 0.000002 0.000000 -0.000001 0.000002 0.000004 0.000000 -0.000000 0.000004 0.000000 -0.000000 0.000004 0.000000 -0.000000 0.000004 0.000000 -0.000000 0.000004 0.000000 -0.000000 0.000002 0.000000 -0.000000 0.000004 0.000000 -0.000000 0.000004 0.000000 -0.000000 0.000002 0.000000 -0.000000 -0.000000 -0.000001 0.000001 -0.000000 -0.000001 0.000001 -0.000000 -0.000000 0.000001 
7.366125 63.411682 28.495920 21.879867 26.597943 -18.868539 -0.000001 0.000001 -0.000000 -75.671570 7.581593 11.855469 92.465400 21.957305 -4.645823 -28.646314 -0.915987 -1.985720 -0.000000 -0.000001 0.000001 -0.000000 -0.000001 0.000001 -0.000002 -0.000002 0.000000 -81.027948 0.432137 6.733684 67.104642 -6.039774 -7.736341 -5.752698 -1.200139 13.634931 -0.000000 -0.000000 0.000000 -0.000000 -0.000000 0.000000 -0.000000 -0.000000 -0.000001 4.817799 -4.302403 1.412097 9.715993 -8.937806 2.565179 9.715989 -8.937811 2.565181 -2.297582 -0.503342 -2.034193 -5.048592 -10.010676 5.486942 0.000001 -0.000000 -0.000002 0.000001 -0.000000 -0.000002 0.000001 -0.000000 -0.000002 3.604112 -23.085819 -14.180784 -83.727485 -36.516223 -71.715074 83.806469 -24.415848 63.354506 6.940051 3.225703 18.083515 -19.376103 -6.570493 -0.329107 -16.659516 10.694762 -4.873058 0.000001 0.000005 -0.000002 -9.583160 -12.028923 -23.650568 -1.715310 0.559470 -26.425932 -0.000003 0.000005 -0.000003 -0.332009 -0.217439 -16.787895 -3.629998 -1.390718 -16.659806 0.000001 -0.000001 0.000002 2.080181 13.896956 -10.845523 0.560987 -4.080775 -38.113285 0.000002 0.000000 0.000001 0.949938 26.006948 -12.743700 1.054727 -6.921507 -29.680857 -0.000001 0.000001 -0.000002 -0.000003 0.000001 0.000001 -1.405213 13.351234 10.710817 -58.947599 23.429371 47.822157 71.921742 34.152582 -67.354906 1.345813 -2.633799 -11.971731 -18.829479 1.683264 0.412988 16.490553 4.517770 9.270960 0.000000 -0.000003 -0.000000 -0.139667 4.290472 -11.485715 -3.106578 0.732535 48.373804 -0.000001 0.000003 0.000002 -6.069393 -6.720149 4.215031 -1.859291 1.536280 32.167964 0.000000 0.000001 0.000002 0.098269 -10.033702 16.211778 -0.113496 2.964337 24.848723 -0.000000 0.000000 0.000000 0.871786 -12.399059 38.416365 -0.729631 7.090896 25.619623 -0.000001 -0.000002 -0.000002 0.000001 -0.000003 0.000001 0.000002 0.000000 -0.000000 0.000002 0.000000 -0.000000 0.000002 0.000000 -0.000000 0.000002 0.000000 -0.000000 0.000002 0.000000 -0.000000 0.000004 0.000000 -0.000000 0.000002 0.000000 -0.000000 0.000002 0.000000 -0.000000 0.000004 0.000000 -0.000000 -0.000000 -0.000001 0.000001 -0.000000 -0.000001 0.000001 -0.000001 0.000001 -0.000000 
7.108273 63.201393 29.099903 22.651288 28.337960 -19.337942 -0.000001 -0.000001 0.000000 -75.151240 8.304976 13.265453 94.417086 23.903963 -6.253938 -32.299592 -2.037319 1.878153 -0.000000 -0.000003 0.000000 -0.000000 -0.000003 0.000000 -0.000003 0.000000 0.000000 -81.537323 0.856719 6.032344 68.695399 -7.541915 -7.423549 -6.919292 -1.305741 13.841004 0.000000 -0.000002 -0.000000 0.000000 -0.000002 -0.000000 0.000001 -0.000003 0.000001 4.804984 -4.647781 1.492797 9.704285 -9.627298 2.734879 9.704290 -9.627297 2.734889 -2.187107 0.073237 -2.209809 -4.765255 -9.218302 5.629884 0.000001 -0.000000 -0.000001 0.000001 -0.000000 -0.000001 0.000001 -0.000000 -0.000001 3.570540 -23.277985 -14.270692 -83.277696 -36.587469 -72.045546 85.206726 -23.287848 63.723903 6.786034 1.777641 15.328995 -20.101667 -6.861874 -0.377865 -17.218699 11.062349 -4.330062 0.000001 -0.000002 -0.000002 -9.419806 -12.306545 -23.290853 -1.968767 0.289485 -29.262825 -0.000001 -0.000003 -0.000000 -0.418485 -0.232303 -16.520759 -3.741893 -1.544169 -17.808050 0.000001 -0.000001 -0.000000 1.871776 13.722263 -10.202450 0.549255 -4.158028 -39.234546 0.000001 -0.000002 -0.000004 0.675035 25.659212 -11.812971 1.070531 -7.002068 -30.226705 -0.000002 -0.000000 -0.000000 0.000002 -0.000000 0.000003 -1.540790 12.618962 11.542229 -60.055415 23.985913 49.929332 73.598410 33.012425 -68.329342 1.503450 -2.580546 -11.787529 -20.055594 2.325041 0.493399 16.638889 4.600087 8.856879 0.000000 -0.000001 0.000002 -0.211613 4.548581 -11.066159 -3.299987 0.747393 50.262471 -0.000001 0.000001 0.000000 -6.205557 -6.755980 4.525740 -2.002853 1.611732 33.485757 0.000002 0.000002 0.000002 -0.054561 -9.866770 16.355327 -0.116203 3.065576 26.310524 -0.000000 -0.000000 0.000002 0.823448 -12.587293 38.170386 -0.708072 7.158180 27.203484 0.000000 -0.000001 -0.000001 0.000000 -0.000000 0.000001 -0.000002 0.000000 0.000000 -0.000002 0.000000 0.000000 -0.000002 0.000000 0.000000 -0.000002 0.000000 0.000000 -0.000002 0.000000 0.000001 -0.000000 -0.000000 -0.000001 -0.000002 0.000000 0.000000 -0.000002 0.000000 0.000001 -0.000000 -0.000000 -0.000001 -0.000003 0.000001 -0.000000 -0.000003 0.000001 -0.000000 -0.000001 -0.000001 0.000000 
6.869619 63.216316 29.673935 23.211735 29.950714 -19.495122 -0.000000 -0.000001 -0.000000 -73.524234 8.703821 13.891242 95.675398 27.569794 -7.132476 -35.727521 -3.230330 4.293218 0.000000 0.000001 0.000001 0.000000 0.000001 0.000001 0.000002 0.000000 0.000000 -81.482811 1.465364 5.604127 69.637139 -8.984223 -7.418263 -7.830816 -1.426833 14.203676 -0.000000 -0.000000 -0.000000 -0.000000 -0.000000 -0.000000 -0.000000 -0.000001 -0.000001 4.785444 -4.943945 1.556212 9.675831 -10.212445 2.856478 9.675824 -10.212451 2.856480 -1.979320 0.452144 -2.337895 -4.474311 -8.871569 5.910873 0.000001 -0.000000 -0.000000 0.000001 -0.000000 -0.000000 0.000001 -0.000000 -0.000000 3.568579 -23.488701 -14.455815 -81.651169 -36.391531 -70.848302 87.324153 -22.007424 65.918723 6.139272 0.805780 9.777481 -20.747191 -7.081699 -0.417339 -16.326739 12.234291 -3.604727 0.000000 -0.000001 0.000002 -8.995111 -12.659796 -22.729695 -2.314140 -0.141970 -33.487103 -0.000000 -0.000002 -0.000002 -0.494800 -0.111334 -16.255317 -3.883999 -1.839684 -20.550277 -0.000001 -0.000001 0.000000 1.625740 13.568130 -9.604733 0.483733 -4.279375 -41.436985 0.000001 -0.000002 -0.000004 0.395979 24.955431 -10.840916 1.050634 -7.099402 -31.845344 0.000001 -0.000001 -0.000000 0.000000 -0.000001 0.000000 -1.635624 11.950472 12.059040 -60.810718 24.239303 52.067273 75.327438 31.759908 -69.270925 1.911964 -1.139419 -13.122147 -21.039860 2.251363 0.219581 16.539301 4.605996 8.462874 -0.000001 0.000002 0.000002 -0.580623 5.002270 -9.342591 -3.467007 0.755481 51.902208 -0.000003 -0.000001 0.000002 -6.407905 -6.687299 5.388691 -2.236497 1.729641 35.689460 0.000001 0.000004 0.000002 -0.357379 -9.463124 16.867181 -0.137352 3.222710 28.670061 -0.000000 0.000001 -0.000001 0.741584 -12.758855 37.734968 -0.688509 7.266281 29.805392 0.000001 -0.000001 0.000002 -0.000000 -0.000001 -0.000000 0.000004 -0.000001 -0.000000 0.000004 -0.000001 -0.000000 0.000004 -0.000001 -0.000000 0.000004 -0.000001 -0.000000 0.000004 -0.000001 -0.000000 0.000004 -0.000000 -0.000000 0.000004 -0.000001 -0.000000 0.000004 -0.000001 -0.000000 0.000004 -0.000000 -0.000000 0.000001 0.000000 -0.000000 0.000001 0.000000 -0.000000 -0.000000 -0.000001 -0.000000 
